# Blender v2.79 (sub 0) OBJ File: ''
# www.blender.org
mtllib water_block.mtl
v 1.000000 -1.000000 -1.000000
v 1.000000 -1.000000 1.000000
v -1.000000 -1.000000 1.000000
v -1.000000 -1.000000 -1.000000
v 1.000000 1.000000 -0.999999
v 0.999999 1.000000 1.000001
v -1.000000 1.000000 1.000000
v -1.000000 1.000000 -1.000000
vt 0.752741 0.996217
vt 0.997455 0.547344
vt 0.997455 0.996217
vt 0.750518 1.000328
vt 0.999722 0.543218
vt 0.999722 1.000328
vt 0.997583 0.995230
vt 0.752290 0.545295
vt 0.997583 0.545295
vt 0.999153 0.997438
vt 0.752076 0.544229
vt 0.999153 0.544229
vt 0.753712 0.993820
vt 0.997812 0.546073
vt 0.997812 0.993820
vt 0.999084 0.998556
vt 0.752090 0.545501
vt 0.999084 0.545501
vt 0.752741 0.547344
vt 0.750518 0.543218
vt 0.752290 0.995230
vt 0.752076 0.997438
vt 0.753712 0.546073
vt 0.752090 0.998556
vn 0.0000 -1.0000 0.0000
vn 0.0000 1.0000 0.0000
vn 1.0000 -0.0000 0.0000
vn 0.0000 -0.0000 1.0000
vn -1.0000 -0.0000 -0.0000
vn 0.0000 0.0000 -1.0000
usemtl Material.001
s off
f 2/1/1 4/2/1 1/3/1
f 8/4/2 6/5/2 5/6/2
f 5/7/3 2/8/3 1/9/3
f 6/10/4 3/11/4 2/12/4
f 3/13/5 8/14/5 4/15/5
f 1/16/6 8/17/6 5/18/6
f 2/1/1 3/19/1 4/2/1
f 8/4/2 7/20/2 6/5/2
f 5/7/3 6/21/3 2/8/3
f 6/10/4 7/22/4 3/11/4
f 3/13/5 7/23/5 8/14/5
f 1/16/6 4/24/6 8/17/6
